<?xml version="1.0" encoding="UTF-8" standalone="no"?>
<!--
  - Copyright 2023 Matus Faro
  -
  - Permission is hereby granted, free of charge, to any person obtaining a copy
  - of this software and associated documentation files (the "Software"), to deal
  - in the Software without restriction, including without limitation the rights
  - to use, copy, modify, merge, publish, distribute, sublicense, and/or sell
  - copies of the Software, and to permit persons to whom the Software is
  - furnished to do so, subject to the following conditions:
  -
  - The above copyright notice and this permission notice shall be included in all
  - copies or substantial portions of the Software.
  -
  - THE SOFTWARE IS PROVIDED "AS IS", WITHOUT WARRANTY OF ANY KIND, EXPRESS OR
  - IMPLIED, INCLUDING BUT NOT LIMITED TO THE WARRANTIES OF MERCHANTABILITY,
  - FITNESS FOR A PARTICULAR PURPOSE AND NONINFRINGEMENT. IN NO EVENT SHALL THE
  - AUTHORS OR COPYRIGHT HOLDERS BE LIABLE FOR ANY CLAIM, DAMAGES OR OTHER
  - LIABILITY, WHETHER IN AN ACTION OF CONTRACT, TORT OR OTHERWISE, ARISING FROM,
  - OUT OF OR IN CONNECTION WITH THE SOFTWARE OR THE USE OR OTHER DEALINGS IN THE
  - SOFTWARE.
  -->

<!-- Created with Inkscape (http://www.inkscape.org/) -->

<svg
   width="1200mm"
   height="300mm"
   viewBox="0 0 1200 300"
   version="1.1"
   id="svg5"
   inkscape:version="1.3.1 (91b66b0, 2023-11-16)"
   sodipodi:docname="logo-and-title-light.svg"
   xmlns:inkscape="http://www.inkscape.org/namespaces/inkscape"
   xmlns:sodipodi="http://sodipodi.sourceforge.net/DTD/sodipodi-0.dtd"
   xmlns="http://www.w3.org/2000/svg"
   xmlns:svg="http://www.w3.org/2000/svg">
  <sodipodi:namedview
     id="namedview7"
     pagecolor="#ffffff"
     bordercolor="#ffffff"
     borderopacity="0"
     inkscape:showpageshadow="0"
     inkscape:pageopacity="0.99215686"
     inkscape:pagecheckerboard="true"
     inkscape:deskcolor="#ffffff"
     inkscape:document-units="mm"
     showgrid="false"
     inkscape:zoom="0.84818374"
     inkscape:cx="2614.4099"
     inkscape:cy="509.32361"
     inkscape:window-width="2056"
     inkscape:window-height="1229"
     inkscape:window-x="0"
     inkscape:window-y="44"
     inkscape:window-maximized="0"
     inkscape:current-layer="text67707"
     showguides="true" />
  <defs
     id="defs2">
    <linearGradient
       id="linearGradient80261"
       inkscape:swatch="solid">
      <stop
         style="stop-color:#248c8f;stop-opacity:1;"
         offset="0"
         id="stop80259" />
    </linearGradient>
    <linearGradient
       id="linearGradient17663"
       inkscape:swatch="solid">
      <stop
         style="stop-color:#ead129;stop-opacity:1;"
         offset="0"
         id="stop17661" />
    </linearGradient>
    <linearGradient
       id="linearGradient2074"
       inkscape:swatch="solid">
      <stop
         style="stop-color:#280b0b;stop-opacity:1;"
         offset="0"
         id="stop2072" />
    </linearGradient>
    <filter
       style="color-interpolation-filters:sRGB"
       inkscape:label="Roughen"
       id="filter90514"
       x="-1.6428084e-08"
       y="-1.6050421e-08"
       width="1"
       height="1">
      <feTurbulence
         type="fractalNoise"
         numOctaves="5"
         seed="16"
         baseFrequency="0.01 0.01"
         result="turbulence"
         id="feTurbulence90510" />
      <feDisplacementMap
         in="SourceGraphic"
         in2="turbulence"
         scale="4.04984"
         yChannelSelector="G"
         xChannelSelector="R"
         id="feDisplacementMap90512" />
    </filter>
  </defs>
  <g
     inkscape:label="can"
     inkscape:groupmode="layer"
     id="layer1">
    <path
       id="rect19268"
       style="fill:#248c8f;fill-opacity:1;stroke:#000000;stroke-width:0"
       d="m 178.9503,91.559066 c -2.92198,0.218413 -6.8647,3.456981 -8.61748,9.802824 v 182.00914 c 38.65577,13.87462 79.34138,16.21932 123.63557,0 V 101.36262 c -0.13949,-1.33861 0.23915,-3.039138 -0.49406,-2.904251 -4.72312,0.868647 -1.59616,-0.552867 -4.78448,3.936361 -24.61483,6.74956 -50.71095,8.41583 -77.21946,5.93753 V 275.23808 H 186.1318 v -170.494 c -1.92828,-0.36274 -3.85717,-0.74086 -5.7858,-1.1435 -6.21008,-3.31407 -1.66988,-9.144222 1.65444,-10.475034 -0.60466,-1.140908 -1.72196,-1.665766 -3.05014,-1.56648 z"
       sodipodi:nodetypes="sccccccccccccs" />
    <path
       id="rect20049"
       style="fill:#248c8f;fill-opacity:1;stroke:#000000;stroke-width:0"
       d="m 204.6703,69.29965 c 19.37425,4.549206 38.74851,3.771592 58.12275,0 0.0793,15.055114 5.65181,17.0405 18.07827,23.725749 0.57173,0.307573 3.1451,0.797366 6.0137,0.69181 4.95175,-0.182237 1.81247,-0.72577 1.88962,1.251688 -1.10535,4.459019 -1.12459,0.09257 -8.29574,1.586645 -33.91718,7.443898 -58.18278,8.647478 -95.36675,-1.122812 -6.20215,-1.320522 -7.17135,1.569987 -8.2233,-1.311151 -0.36712,-1.005445 -0.66233,-3.065496 5.87201,-3.119804 24.81854,-12.252467 18.4751,-12.398156 21.90944,-21.702125 z"
       sodipodi:nodetypes="ccsscccscc" />
    <path
       id="rect20051"
       style="fill:#248c8f;fill-opacity:1;stroke:#000000;stroke-width:0"
       class="UnoptimicedTransforms"
       d="m 230.62864,25.668694 c -2.11189,-0.0042 -3.45857,0.40629 -3.44384,1.398192 0.1123,7.555665 0,30.934328 0,30.934328 9.75782,1.987335 19.09229,1.700604 28.16356,0 V 34.023272 c 0.12289,-3.031295 -17.17722,-8.339425 -24.71972,-8.354578 z m 4.40004,8.11358 c 2.86371,5.6e-5 5.18518,2.575945 5.18516,5.753433 2e-5,3.177487 -2.32145,5.753376 -5.18516,5.753432 -2.86371,-5.6e-5 -5.18518,-2.575945 -5.18516,-5.753432 -2e-5,-3.177488 2.32145,-5.753377 5.18516,-5.753433 z"
       transform="matrix(2.0701693,0,0,1.926913,-265.47325,-45.888005)"
       sodipodi:nodetypes="ccccccccccc" />
    <g
       id="text67707"
       style="font-size:163.556px;-inkscape-font-specification:sans-serif;fill:#248c8f;stroke:#000000;stroke-width:0"
       aria-label="DataSpray">
      <path
         style="fill:#000000"
         d="m 437.10908,142.28521 q 0,16.21185 -7.10766,29.38897 -7.02779,13.17712 -18.76741,20.4445 -8.14585,5.03126 -18.20838,7.26738 -9.98267,2.23612 -26.35424,2.23612 H 336.64353 V 82.70866 h 29.70841 q 17.40977,0 27.63202,2.555562 10.30212,2.475701 17.40977,6.868074 12.13893,7.586827 18.92714,20.204914 6.78821,12.61809 6.78821,29.948 z m -16.53129,-0.23958 q 0,-13.97574 -4.87155,-23.5591 -4.87154,-9.58335 -14.53476,-15.09379 -7.02779,-3.993063 -14.93407,-5.510428 -7.90627,-1.597227 -18.92713,-1.597227 h -14.85421 v 91.760665 h 14.85421 q 11.42017,0 19.88547,-1.67709 8.54516,-1.67708 15.65282,-6.22918 8.86461,-5.67015 13.25698,-14.93407 4.47224,-9.26391 4.47224,-23.15978 z m 110.20863,59.57655 h -14.93407 v -9.5035 q -1.99653,1.35764 -5.43057,3.83334 -3.35417,2.39584 -6.54863,3.83335 -3.75348,1.83681 -8.62502,3.03473 -4.87154,1.27778 -11.42017,1.27778 -12.05906,0 -20.4445,-7.98613 -8.38544,-7.98614 -8.38544,-20.36464 0,-10.14239 4.31251,-16.37158 4.39238,-6.30904 12.45837,-9.9028 8.14586,-3.59376 19.56603,-4.87154 11.42017,-1.27778 24.51742,-1.91667 v -2.31598 q 0,-5.11113 -1.83681,-8.4653 -1.75695,-3.35418 -5.11112,-5.27085 -3.19445,-1.83681 -7.66669,-2.4757 -4.47223,-0.63889 -9.34377,-0.63889 -5.90974,0 -13.17712,1.59722 -7.26738,1.51737 -15.01393,4.47224 h -0.79862 v -15.25351 q 4.39238,-1.19792 12.69795,-2.63543 8.30558,-1.4375 16.37158,-1.4375 9.42363,0 16.37157,1.59722 7.0278,1.51737 12.13892,5.27085 5.03126,3.67362 7.66669,9.5035 2.63542,5.82988 2.63542,14.4549 z m -14.93407,-21.96187 v -24.83687 q -6.86807,0.39931 -16.21185,1.19792 -9.26391,0.79861 -14.69448,2.31598 -6.46877,1.83681 -10.46183,5.75001 -3.99307,3.83335 -3.99307,10.62156 0,7.66669 4.63196,11.57989 4.63195,3.83335 14.13545,3.83335 7.90627,0 14.4549,-3.03473 6.54863,-3.1146 12.13892,-7.42711 z m 90.16344,21.16325 q -4.23265,1.11806 -9.26391,1.83681 -4.95141,0.71876 -8.86461,0.71876 -13.65629,0 -20.76395,-7.34725 -7.10765,-7.34724 -7.10765,-23.55909 v -47.43763 h -10.14239 v -12.61809 h 10.14239 V 86.781587 h 15.01393 v 25.635483 h 30.98619 v 12.61809 H 575.0296 v 40.64942 q 0,7.0278 0.31944,11.02086 0.31945,3.91321 2.23612,7.34724 1.75695,3.19446 4.79168,4.71182 3.11459,1.43751 9.42363,1.43751 3.67363,0 7.66669,-1.0382 3.99307,-1.11806 5.75002,-1.83681 h 0.79861 z m 87.44815,0.79862 h -14.93407 v -9.5035 q -1.99653,1.35764 -5.43057,3.83334 -3.35417,2.39584 -6.54862,3.83335 -3.75349,1.83681 -8.62503,3.03473 -4.87154,1.27778 -11.42017,1.27778 -12.05906,0 -20.4445,-7.98613 -8.38544,-7.98614 -8.38544,-20.36464 0,-10.14239 4.31251,-16.37158 4.39238,-6.30904 12.45837,-9.9028 8.14586,-3.59376 19.56603,-4.87154 11.42017,-1.27778 24.51742,-1.91667 v -2.31598 q 0,-5.11113 -1.83681,-8.4653 -1.75695,-3.35418 -5.11112,-5.27085 -3.19445,-1.83681 -7.66669,-2.4757 -4.47223,-0.63889 -9.34377,-0.63889 -5.90974,0 -13.17712,1.59722 -7.26738,1.51737 -15.01393,4.47224 h -0.79862 v -15.25351 q 4.39238,-1.19792 12.69796,-2.63543 8.30557,-1.4375 16.37157,-1.4375 9.42363,0 16.37157,1.59722 7.0278,1.51737 12.13892,5.27085 5.03127,3.67362 7.66669,9.5035 2.63542,5.82988 2.63542,14.4549 z m -14.93407,-21.96187 v -24.83687 q -6.86807,0.39931 -16.21184,1.19792 -9.26392,0.79861 -14.69449,2.31598 -6.46877,1.83681 -10.46183,5.75001 -3.99307,3.83335 -3.99307,10.62156 0,7.66669 4.63196,11.57989 4.63195,3.83335 14.13545,3.83335 7.90627,0 14.4549,-3.03473 6.54863,-3.1146 12.13892,-7.42711 z"
         id="path1" />
      <path
         style="fill:#62d4d7"
         d="m 809.98162,167.68111 q 0,6.94794 -3.27432,13.73615 -3.19445,6.78821 -9.02433,11.50003 -6.3889,5.11113 -14.93406,7.98614 -8.46531,2.875 -20.4445,2.875 -12.85768,0 -23.15979,-2.39584 -10.22225,-2.39584 -20.84381,-7.10766 v -19.8056 h 1.11806 q 9.02433,7.50696 20.84381,11.57989 11.81948,4.07293 22.20145,4.07293 14.69448,0 22.84034,-5.51044 8.22571,-5.51043 8.22571,-14.69448 0,-7.90627 -3.9132,-11.65975 -3.83334,-3.75349 -11.73962,-5.82988 -5.9896,-1.59723 -13.01739,-2.63542 -6.94794,-1.0382 -14.77435,-2.63543 -15.81254,-3.35417 -23.47923,-11.42017 -7.58682,-8.14585 -7.58682,-21.16325 0,-14.934069 12.61809,-24.437567 12.61809,-9.583359 32.02439,-9.583359 12.53823,0 23.00006,2.39584 10.46183,2.39584 18.52783,5.909738 v 18.687548 h -1.11806 q -6.78821,-5.75001 -17.88894,-9.503495 -11.02086,-3.833344 -22.60075,-3.833344 -12.69795,0 -20.4445,5.270848 -7.66669,5.270851 -7.66669,13.576421 0,7.42711 3.83334,11.65976 3.83335,4.23265 13.49657,6.46877 5.11112,1.11805 14.53476,2.71528 9.42364,1.59723 15.97226,3.27432 13.25699,3.51389 19.96534,10.62155 6.70835,7.10766 6.70835,19.88547 z M 912.6833,155.9415 q 0,10.86114 -3.11459,19.88547 -3.11459,8.94447 -8.78474,15.17365 -5.27085,5.90974 -12.45837,9.18405 -7.10766,3.19446 -15.09379,3.19446 -6.94794,0 -12.61809,-1.51737 -5.59029,-1.51736 -11.42017,-4.71182 v 37.3751 H 834.17962 V 112.41707 h 15.01393 v 9.34378 q 5.9896,-5.03126 13.4167,-8.38544 7.50697,-3.43404 15.97227,-3.43404 16.13199,0 25.07645,12.21879 9.02433,12.13892 9.02433,33.78134 z m -15.49309,0.3993 q 0,-16.13198 -5.51043,-24.11812 -5.51044,-7.98613 -16.93061,-7.98613 -6.46876,0 -13.01739,2.79515 -6.54863,2.79514 -12.53823,7.34724 v 50.55222 q 6.38891,2.87501 10.941,3.9132 4.63196,1.0382 10.46183,1.0382 12.53823,0 19.56603,-8.4653 7.0278,-8.4653 7.0278,-25.07646 z m 94.55577,-27.55215 h -0.79861 q -3.35418,-0.79862 -6.54863,-1.11806 -3.11459,-0.39931 -7.42711,-0.39931 -6.94793,0 -13.4167,3.11459 -6.46877,3.03473 -12.45837,7.90627 v 63.33004 h -15.01393 v -89.20511 h 15.01393 v 13.17712 q 8.94447,-7.18752 15.73269,-10.14239 6.86807,-3.03473 13.97573,-3.03473 3.9132,0 5.67015,0.23959 1.75695,0.15972 5.27085,0.71875 z m 80.58012,72.83353 h -14.9341 v -9.5035 q -1.9965,1.35764 -5.4305,3.83334 -3.3542,2.39584 -6.5487,3.83335 -3.7535,1.83681 -8.625,3.03473 -4.8715,1.27778 -11.4202,1.27778 -12.059,0 -20.4445,-7.98613 -8.38541,-7.98614 -8.38541,-20.36464 0,-10.14239 4.31251,-16.37158 4.3924,-6.30904 12.4584,-9.9028 8.1458,-3.59376 19.566,-4.87154 11.4202,-1.27778 24.5174,-1.91667 v -2.31598 q 0,-5.11113 -1.8368,-8.4653 -1.7569,-3.35418 -5.1111,-5.27085 -3.1945,-1.83681 -7.6667,-2.4757 -4.4722,-0.63889 -9.3438,-0.63889 -5.9097,0 -13.1771,1.59722 -7.2674,1.51737 -15.0139,4.47224 h -0.7986 v -15.25351 q 4.3923,-1.19792 12.6979,-2.63543 8.3056,-1.4375 16.3716,-1.4375 9.4236,0 16.3716,1.59722 7.0278,1.51737 12.1389,5.27085 5.0312,3.67362 7.6667,9.5035 2.6354,5.82988 2.6354,14.4549 z m -14.9341,-21.96187 v -24.83687 q -6.868,0.39931 -16.2118,1.19792 -9.2639,0.79861 -14.6945,2.31598 -6.4688,1.83681 -10.4618,5.75001 -3.9931,3.83335 -3.9931,10.62156 0,7.66669 4.6319,11.57989 4.632,3.83335 14.1355,3.83335 7.9063,0 14.4549,-3.03473 6.5486,-3.1146 12.1389,-7.42711 z m 119.7121,-67.24324 -52.0696,122.10797 h -16.0521 l 16.6111,-37.21537 -35.5382,-84.8926 h 16.2917 l 27.3924,66.12518 27.632,-66.12518 z"
         id="path2" />
    </g>
  </g>
  <g
     inkscape:groupmode="layer"
     id="layer2"
     inkscape:label="cloud">
    <g
       aria-label="1"
       id="text1992-9"
       style="font-size:24.6944px;-inkscape-font-specification:sans-serif;fill:#388e3c;fill-opacity:0.692521;stroke:#000000;stroke-width:0;stop-color:#000000"
       transform="translate(-74.803223,0.64221773)" />
    <g
       aria-label="1"
       id="text2247-9"
       style="font-size:24.6944px;-inkscape-font-specification:sans-serif;vector-effect:none;fill:#388e3c;fill-opacity:0.692521;stroke:#000000;stroke-width:0;stop-color:#000000"
       transform="translate(-25.445361,14.565485)" />
    <path
       id="use3128"
       style="opacity:0.445298;vector-effect:none;fill:#57cadc;fill-opacity:1;stroke:#000000;stroke-width:0;stop-color:#000000"
       d="m 78.905503,14.846048 c -6.21424,0.11629 -11.86645,3.6016 -14.73018,9.08306 l 6.72643,5.53408 c 1.45157,-1.13818 1.72843,-4.75701 7.98897,-4.98087 v 11.04295 h -16.6894 c 0.5003,5.76952 5.00725,8.31416 7.79186,10.47261 h 18.14753 c 2.78431,-1.71212 6.45012,-6.48902 7.249724,-10.47261 h -7.044464 v -17.69519 c -3.03887,-1.78388 -6.15874,-2.90171 -8.5397,-2.98403 z"
       sodipodi:nodetypes="ccccccccccccc" />
    <path
       id="use3128-8-8"
       style="font-variation-settings:normal;opacity:0.445298;vector-effect:none;fill:#a7e3ed;fill-opacity:1;stroke:#000000;stroke-width:0;stroke-linecap:butt;stroke-linejoin:miter;stroke-miterlimit:4;stroke-dasharray:none;stroke-dashoffset:0;stroke-opacity:1;-inkscape-stroke:none;stop-color:#000000;stop-opacity:1"
       d="m 122.86325,14.832197 c -6.21425,0.11629 -11.8665,3.6016 -14.73025,9.08306 l 6.72647,5.53408 c 1.4516,-1.13818 1.72844,-4.75701 7.98899,-4.98088 v 11.042961 h -16.68945 c 0.50031,5.76952 5.00724,8.31416 7.79188,10.47261 h 18.14756 c 2.78432,-1.71212 6.45011,-6.48903 7.24973,-10.47261 h -7.04445 v -17.69519 c -3.03889,-1.78388 -6.15875,-2.90172 -8.5397,-2.98403 z"
       sodipodi:nodetypes="ccccccccccccc" />
    <path
       id="use3128-0"
       style="font-variation-settings:normal;opacity:0.445298;vector-effect:none;fill:#1e7f8f;fill-opacity:1;stroke:#000000;stroke-width:0;stroke-linecap:butt;stroke-linejoin:miter;stroke-miterlimit:4;stroke-dasharray:none;stroke-dashoffset:0;stroke-opacity:1;-inkscape-stroke:none;stop-color:#000000;stop-opacity:1"
       d="m 35.432401,150.66164 c -6.21423,0.1163 -11.86645,3.60162 -14.73018,9.08307 l 6.72642,5.53408 c 1.45158,-1.13818 1.72843,-4.75701 7.98898,-4.98088 v 11.04295 h -16.6894 c 0.5003,5.76954 5.00724,8.31417 7.79186,10.47262 h 18.14753 c 2.78431,-1.71211 6.45011,-6.48902 7.24972,-10.47262 h -7.04445 v -17.69518 c -3.03889,-1.78387 -6.15874,-2.90172 -8.5397,-2.98404 z"
       sodipodi:nodetypes="ccccccccccccc" />
    <path
       id="use3128-7"
       style="font-variation-settings:normal;opacity:0.445298;vector-effect:none;fill:#a7e3ed;fill-opacity:1;stroke:#000000;stroke-width:0;stroke-linecap:butt;stroke-linejoin:miter;stroke-miterlimit:4;stroke-dasharray:none;stroke-dashoffset:0;stroke-opacity:1;-inkscape-stroke:none;stop-color:#000000"
       d="m 34.710861,60.477638 c -6.21424,0.11629 -11.86645,3.60163 -14.7302,9.08311 l 6.72645,5.53412 c 1.45157,-1.13818 1.72842,-4.75704 7.98896,-4.9809 v 11.04299 h -16.68939 c 0.50029,5.76952 5.00723,8.31415 7.79185,10.4726 h 18.14754 c 2.7843,-1.71211 6.45011,-6.48903 7.24972,-10.4726 h -7.04445 v -17.69527 c -3.03889,-1.78389 -6.15875,-2.90174 -8.5397,-2.98405 z"
       sodipodi:nodetypes="ccccccccccccc" />
    <path
       id="use3979-4"
       style="font-variation-settings:normal;opacity:0.445298;vector-effect:none;fill:#29b0c6;fill-opacity:1;stroke:#000000;stroke-width:0;stroke-linecap:butt;stroke-linejoin:miter;stroke-miterlimit:4;stroke-dasharray:none;stroke-dashoffset:0;stroke-opacity:1;-inkscape-stroke:none;stop-color:#000000;stop-opacity:1"
       d="m 165.81411,13.830658 c -9.36493,-2.6e-4 -16.95689,7.54341 -16.95709,16.84921 -2.5e-4,9.3061 7.59184,16.85025 16.95709,16.85 9.36491,-2e-4 16.9565,-7.54422 16.95624,-16.85 -1.9e-4,-9.30549 -7.59165,-16.84902 -16.95624,-16.84921 z m 2.03967,12.37376 c 3.15264,-2.3e-4 5.33625,2.37351 5.16594,5.67603 -0.1703,3.30251 -1.67192,5.94559 -5.84805,5.94537 -4.17612,-2.2e-4 -5.84745,-3.67161 -5.6767,-6.9738 0.17075,-3.30219 3.20616,-4.64738 6.35881,-4.6476 z"
       sodipodi:nodetypes="ssscszzzzz" />
    <path
       id="use3128-7-2-2"
       style="font-variation-settings:normal;opacity:0.445298;vector-effect:none;fill:#38c0d6;fill-opacity:1;stroke:#000000;stroke-width:0;stroke-linecap:butt;stroke-linejoin:miter;stroke-miterlimit:4;stroke-dasharray:none;stroke-dashoffset:0;stroke-opacity:1;-inkscape-stroke:none;stop-color:#000000;stop-opacity:1"
       d="m 122.06517,59.923098 c -6.21424,0.11629 -11.86645,3.60162 -14.7302,9.08311 l 6.72644,5.53411 c 1.45157,-1.13819 1.72842,-4.75703 7.98897,-4.98088 v 11.04299 h -16.6894 c 0.50029,5.76952 5.00723,8.31414 7.79186,10.47259 h 18.14754 c 2.7843,-1.71211 6.45011,-6.48902 7.2497,-10.47259 h -7.04444 v -17.69528 c -3.03889,-1.78389 -6.15875,-2.90173 -8.5397,-2.98405 z"
       sodipodi:nodetypes="ccccccccccccc" />
    <path
       id="use3979-6-2"
       style="font-variation-settings:normal;opacity:0.445298;vector-effect:none;fill:#14545e;fill-opacity:1;stroke:#000000;stroke-width:0;stroke-linecap:butt;stroke-linejoin:miter;stroke-miterlimit:4;stroke-dasharray:none;stroke-dashoffset:0;stroke-opacity:1;-inkscape-stroke:none;stop-color:#000000;stop-opacity:1"
       d="m 78.275136,59.060728 c -9.36491,-2.7e-4 -16.95689,7.54344 -16.95708,16.84932 -2.5e-4,9.30609 7.59185,16.85026 16.95708,16.85 9.36493,-2.1e-4 16.95652,-7.54421 16.95626,-16.85 -1.9e-4,-9.30556 -7.59165,-16.84912 -16.95626,-16.84932 z m 2.0397,12.37383 c 3.15263,-2.2e-4 5.33624,2.37353 5.16593,5.67607 -0.1703,3.3025 -1.67192,5.9456 -5.84805,5.94538 -4.17612,-2.2e-4 -5.84744,-3.67162 -5.67669,-6.97382 0.17075,-3.30219 3.20615,-4.6474 6.35881,-4.64763 z"
       sodipodi:nodetypes="ssscszzzzz" />
    <path
       id="use3979-0"
       style="opacity:0.445298;vector-effect:none;fill:#1c7685;fill-opacity:1;stroke:#000000;stroke-width:0;stop-color:#000000"
       d="m 35.009611,13.534408 c -9.36492,-2.7e-4 -16.95689,7.5434 -16.95708,16.8492 -2.6e-4,9.3061 7.59183,16.85026 16.95708,16.85001 9.36492,-2.1e-4 16.9565,-7.54423 16.95625,-16.85001 -2e-4,-9.30548 -7.59165,-16.84901 -16.95625,-16.8492 z m 2.03967,12.37375 c 3.15265,-2.3e-4 5.33625,2.37352 5.16594,5.67603 -0.1703,3.30251 -1.67191,5.9456 -5.84804,5.94538 -4.17612,-2.2e-4 -5.84745,-3.67161 -5.6767,-6.97381 0.17074,-3.30218 3.20616,-4.64737 6.3588,-4.6476 z"
       sodipodi:nodetypes="ssscszzzzz" />
    <path
       id="use3979-0-7"
       style="font-variation-settings:normal;opacity:0.445298;vector-effect:none;fill:#a0e1eb;fill-opacity:1;stroke:#000000;stroke-width:0;stroke-linecap:butt;stroke-linejoin:miter;stroke-miterlimit:4;stroke-dasharray:none;stroke-dashoffset:0;stroke-opacity:1;-inkscape-stroke:none;stop-color:#000000;stop-opacity:1"
       d="m 78.397983,104.28681 c -9.36491,-2.6e-4 -16.95688,7.5434 -16.95707,16.84922 -2.6e-4,9.30609 7.59184,16.85025 16.95707,16.84999 9.36493,-1.9e-4 16.956524,-7.54422 16.956264,-16.84999 -1.9e-4,-9.30549 -7.591654,-16.84902 -16.956264,-16.84922 z m 2.03969,12.37377 c 3.15264,-2.3e-4 5.33625,2.37351 5.16594,5.67602 -0.1703,3.30252 -1.67192,5.9456 -5.84805,5.94538 -4.17612,-2.2e-4 -5.84745,-3.67162 -5.6767,-6.9738 0.17075,-3.30219 3.20616,-4.64738 6.35881,-4.6476 z"
       sodipodi:nodetypes="ssscszzzzz" />
    <path
       id="use3979-0-0"
       style="font-variation-settings:normal;opacity:0.445298;vector-effect:none;fill:#26a2b6;fill-opacity:1;stroke:#000000;stroke-width:0;stroke-linecap:butt;stroke-linejoin:miter;stroke-miterlimit:4;stroke-dasharray:none;stroke-dashoffset:0;stroke-opacity:1;-inkscape-stroke:none;stop-color:#000000;stop-opacity:1"
       d="m 34.703491,104.60672 c -9.36492,-2.7e-4 -16.95688,7.5434 -16.95708,16.84921 -2.6e-4,9.3061 7.59184,16.85024 16.95708,16.84999 9.36491,-1.9e-4 16.9565,-7.54422 16.95625,-16.84999 -1.9e-4,-9.30549 -7.59165,-16.84902 -16.95625,-16.84921 z m 2.03968,12.37376 c 3.15263,-2.3e-4 5.33624,2.37351 5.16594,5.67602 -0.1703,3.30251 -1.67193,5.94561 -5.84806,5.94538 -4.17612,-2.2e-4 -5.84743,-3.67161 -5.67669,-6.9738 0.17075,-3.30218 3.20617,-4.64737 6.35881,-4.6476 z"
       sodipodi:nodetypes="ssscszzzzz" />
  </g>
</svg>
