<?xml version="1.0" encoding="UTF-8" standalone="no"?>
<!--
  - Copyright 2023 Matus Faro
  -
  - Permission is hereby granted, free of charge, to any person obtaining a copy
  - of this software and associated documentation files (the "Software"), to deal
  - in the Software without restriction, including without limitation the rights
  - to use, copy, modify, merge, publish, distribute, sublicense, and/or sell
  - copies of the Software, and to permit persons to whom the Software is
  - furnished to do so, subject to the following conditions:
  -
  - The above copyright notice and this permission notice shall be included in all
  - copies or substantial portions of the Software.
  -
  - THE SOFTWARE IS PROVIDED "AS IS", WITHOUT WARRANTY OF ANY KIND, EXPRESS OR
  - IMPLIED, INCLUDING BUT NOT LIMITED TO THE WARRANTIES OF MERCHANTABILITY,
  - FITNESS FOR A PARTICULAR PURPOSE AND NONINFRINGEMENT. IN NO EVENT SHALL THE
  - AUTHORS OR COPYRIGHT HOLDERS BE LIABLE FOR ANY CLAIM, DAMAGES OR OTHER
  - LIABILITY, WHETHER IN AN ACTION OF CONTRACT, TORT OR OTHERWISE, ARISING FROM,
  - OUT OF OR IN CONNECTION WITH THE SOFTWARE OR THE USE OR OTHER DEALINGS IN THE
  - SOFTWARE.
  -->

<!-- Created with Inkscape (http://www.inkscape.org/) -->

<svg
   width="300mm"
   height="300mm"
   viewBox="0 0 300 300"
   version="1.1"
   id="svg5"
   inkscape:version="1.3.1 (91b66b0, 2023-11-16)"
   sodipodi:docname="logo-master.svg"
   xmlns:inkscape="http://www.inkscape.org/namespaces/inkscape"
   xmlns:sodipodi="http://sodipodi.sourceforge.net/DTD/sodipodi-0.dtd"
   xmlns="http://www.w3.org/2000/svg"
   xmlns:svg="http://www.w3.org/2000/svg">
  <sodipodi:namedview
     id="namedview7"
     pagecolor="#000000"
     bordercolor="#ffffff"
     borderopacity="0"
     inkscape:showpageshadow="0"
     inkscape:pageopacity="0.99215686"
     inkscape:pagecheckerboard="true"
     inkscape:deskcolor="#000000"
     inkscape:document-units="mm"
     showgrid="false"
     inkscape:zoom="0.3438613"
     inkscape:cx="1283.9479"
     inkscape:cy="552.54837"
     inkscape:window-width="2056"
     inkscape:window-height="1229"
     inkscape:window-x="0"
     inkscape:window-y="44"
     inkscape:window-maximized="0"
     inkscape:current-layer="layer1"
     showguides="true" />
  <defs
     id="defs2">
    <linearGradient
       id="linearGradient80261"
       inkscape:swatch="solid">
      <stop
         style="stop-color:#248c8f;stop-opacity:1;"
         offset="0"
         id="stop80259" />
    </linearGradient>
    <linearGradient
       id="linearGradient17663"
       inkscape:swatch="solid">
      <stop
         style="stop-color:#ead129;stop-opacity:1;"
         offset="0"
         id="stop17661" />
    </linearGradient>
    <linearGradient
       id="linearGradient2074"
       inkscape:swatch="solid">
      <stop
         style="stop-color:#280b0b;stop-opacity:1;"
         offset="0"
         id="stop2072" />
    </linearGradient>
    <filter
       style="color-interpolation-filters:sRGB;"
       inkscape:label="Roughen"
       id="filter90514"
       x="-1.6428083e-08"
       y="-1.6050421e-08"
       width="1"
       height="1">
      <feTurbulence
         type="fractalNoise"
         numOctaves="5"
         seed="16"
         baseFrequency="0.01 0.01"
         result="turbulence"
         id="feTurbulence90510" />
      <feDisplacementMap
         in="SourceGraphic"
         in2="turbulence"
         scale="4.04984"
         yChannelSelector="G"
         xChannelSelector="R"
         id="feDisplacementMap90512" />
    </filter>
  </defs>
  <g
     inkscape:label="can"
     inkscape:groupmode="layer"
     id="layer1">
    <g
       id="g78261"
       style="fill-opacity:1;fill:#248c8f">
      <path
         id="rect19268"
         style="fill:#248c8f;fill-opacity:1;stroke:#000000;stroke-width:0"
         d="m 178.9503,91.559066 c -2.92198,0.218413 -6.8647,3.456981 -8.61748,9.802824 v 182.00914 c 38.65577,13.87462 79.34138,16.21932 123.63557,0 V 101.36262 c -0.13949,-1.33861 0.23915,-3.039138 -0.49406,-2.904251 -4.72312,0.868647 -1.59616,-0.552867 -4.78448,3.936361 -24.61483,6.74956 -50.71095,8.41583 -77.21946,5.93753 V 275.23808 H 186.1318 v -170.494 c -1.92828,-0.36274 -3.85717,-0.74086 -5.7858,-1.1435 -6.21008,-3.31407 -1.66988,-9.144222 1.65444,-10.475034 -0.60466,-1.140908 -1.72196,-1.665766 -3.05014,-1.56648 z"
         sodipodi:nodetypes="sccccccccccccs" />
      <path
         id="rect20049"
         style="fill:#248c8f;fill-opacity:1;stroke:#000000;stroke-width:0"
         d="m 204.6703,69.29965 c 19.37425,4.549206 38.74851,3.771592 58.12275,0 0.0793,15.055114 5.65181,17.0405 18.07827,23.725749 0.57173,0.307573 3.1451,0.797366 6.0137,0.69181 4.95175,-0.182237 1.81247,-0.72577 1.88962,1.251688 -1.10535,4.459019 -1.12459,0.09257 -8.29574,1.586645 -33.91718,7.443898 -58.18278,8.647478 -95.36675,-1.122812 -6.20215,-1.320522 -7.17135,1.569987 -8.2233,-1.311151 -0.36712,-1.005445 -0.66233,-3.065496 5.87201,-3.119804 24.81854,-12.252467 18.4751,-12.398156 21.90944,-21.702125 z"
         sodipodi:nodetypes="ccsscccscc" />
      <path
         id="rect20051"
         style="fill:#248c8f;fill-opacity:1;stroke:#000000;stroke-width:0"
         class="UnoptimicedTransforms"
         d="m 230.62864,25.668694 c -2.11189,-0.0042 -3.45857,0.40629 -3.44384,1.398192 0.1123,7.555665 0,30.934328 0,30.934328 9.75782,1.987335 19.09229,1.700604 28.16356,0 V 34.023272 c 0.12289,-3.031295 -17.17722,-8.339425 -24.71972,-8.354578 z m 4.40004,8.11358 c 2.86371,5.6e-5 5.18518,2.575945 5.18516,5.753433 2e-5,3.177487 -2.32145,5.753376 -5.18516,5.753432 -2.86371,-5.6e-5 -5.18518,-2.575945 -5.18516,-5.753432 -2e-5,-3.177488 2.32145,-5.753377 5.18516,-5.753433 z"
         transform="matrix(2.0701693,0,0,1.926913,-265.47325,-45.888005)"
         sodipodi:nodetypes="ccccccccccc" />
    </g>
    <g
       id="g4">
      <g
         id="g5">
        <path
           id="path3"
           style="font-size:163.556px;-inkscape-font-specification:sans-serif;fill:#ffffff;stroke:#000000;stroke-width:0"
           d="M 341.9352 82.17948 L 341.9352 201.09315 L 371.96283 201.09315 C 382.87717 201.09315 391.6622 200.34786 398.31729 198.85711 C 405.02563 197.36637 411.09492 194.94351 416.52548 191.58934 C 424.35187 186.74442 430.60813 179.92984 435.29333 171.14511 C 440.03175 162.36038 442.4009 152.56407 442.4009 141.75621 C 442.4009 130.20295 440.13815 120.2202 435.61269 111.80816 C 431.08722 103.39612 424.77776 96.661068 416.68516 91.603194 C 411.94674 88.674951 406.14343 86.385343 399.27537 84.73488 C 392.46055 83.031174 383.24995 82.17948 371.64347 82.17948 L 341.9352 82.17948 z M 565.3071 86.252616 L 565.3071 111.88774 L 555.16508 111.88774 L 555.16508 124.5061 L 565.3071 124.5061 L 565.3071 171.94351 C 565.3071 182.75139 567.67675 190.60464 572.41519 195.5028 C 577.15361 200.40095 584.07461 202.85015 593.17878 202.85015 C 595.78758 202.85015 598.74243 202.6105 602.04336 202.13133 C 605.39752 201.65217 608.48563 201.03961 611.30739 200.29423 L 611.30739 186.7979 L 610.50899 186.7979 C 609.33769 187.27707 607.42099 187.88911 604.75895 188.63448 C 602.09691 189.32661 599.5413 189.67266 597.09224 189.67266 C 592.88621 189.67266 589.74492 189.19388 587.66852 188.23554 C 585.64537 187.22397 584.04787 185.65331 582.87657 183.52368 C 581.59879 181.23432 580.85349 178.78512 580.64053 176.17633 C 580.42756 173.51429 580.32117 169.84049 580.32117 165.15529 L 580.32117 124.5061 L 611.30739 124.5061 L 611.30739 111.88774 L 580.32117 111.88774 L 580.32117 86.252616 L 565.3071 86.252616 z M 357.74767 95.755912 L 372.60206 95.755912 C 379.9493 95.755912 386.25824 96.288416 391.52907 97.353231 C 396.79991 98.364806 401.77785 100.20145 406.46305 102.86349 C 412.90518 106.53711 417.75039 111.56825 420.99808 117.95714 C 424.24576 124.34602 425.86961 132.19929 425.86961 141.51643 C 425.86961 150.78032 424.37849 158.50033 421.39702 164.67625 C 418.46877 170.85219 414.0502 175.83013 408.14046 179.61023 C 403.40204 182.64495 398.18392 184.72125 392.48715 185.8393 C 386.84364 186.95736 380.2155 187.51672 372.60206 187.51672 L 357.74767 187.51672 L 357.74767 95.755912 z M 497.26525 109.7318 C 491.88794 109.7318 486.43069 110.2106 480.89364 111.16892 C 475.35661 112.12726 471.12396 113.00581 468.19571 113.80442 L 468.19571 129.05827 L 468.99463 129.05827 C 474.15898 127.08836 479.16378 125.59725 484.0087 124.58568 C 488.8536 123.52086 493.24586 122.98888 497.18567 122.98888 C 500.43336 122.98888 503.5478 123.20167 506.52929 123.6276 C 509.51077 124.05352 512.06638 124.87889 514.196 126.10341 C 516.43212 127.38119 518.13602 129.13779 519.30732 131.37389 C 520.53186 133.61 521.1439 136.43211 521.1439 139.83953 L 521.1439 142.15515 C 512.41241 142.58107 504.23997 143.21997 496.62653 144.07183 C 489.0131 144.92368 482.49136 146.54754 477.0608 148.94336 C 471.68349 151.3392 467.53038 154.64062 464.60213 158.84663 C 461.72714 162.99942 460.28973 168.45615 460.28973 175.21773 C 460.28973 183.47004 463.08498 190.25829 468.67527 195.58238 C 474.26555 200.90645 481.08014 203.56897 489.1195 203.56897 C 493.48524 203.56897 497.2923 203.14286 500.53999 202.29101 C 503.78768 201.4924 506.66247 200.48059 509.16479 199.25605 C 511.29441 198.29773 513.47712 197.01992 515.71322 195.4227 C 518.00258 193.77223 519.81288 192.49443 521.1439 191.58934 L 521.1439 201.09315 L 536.07787 201.09315 L 536.07787 140.55835 C 536.07787 134.80834 535.19984 129.99 533.44289 126.10341 C 531.68595 122.21684 529.13034 119.04868 525.77618 116.5996 C 522.36876 114.09728 518.32204 112.3407 513.63687 111.32912 C 509.00491 110.26431 503.54768 109.7318 497.26525 109.7318 z M 659.94318 109.7318 C 654.56587 109.7318 649.10861 110.2106 643.57157 111.16892 C 638.03453 112.12726 633.80187 113.00581 630.87364 113.80442 L 630.87364 129.05827 L 631.67204 129.05827 C 636.83639 127.08836 641.84119 125.59725 646.68611 124.58568 C 651.53101 123.52086 655.92327 122.98888 659.86308 122.98888 C 663.11077 122.98888 666.22521 123.20167 669.2067 123.6276 C 672.18817 124.05352 674.74379 124.87889 676.87341 126.10341 C 679.10952 127.38119 680.81343 129.13779 681.98473 131.37389 C 683.20927 133.61 683.82131 136.43211 683.82131 139.83953 L 683.82131 142.15515 C 675.08982 142.58107 666.91738 143.21997 659.30394 144.07183 C 651.69051 144.92368 645.16877 146.54754 639.73821 148.94336 C 634.36089 151.3392 630.20778 154.64062 627.27954 158.84663 C 624.40454 162.99942 622.96714 168.45615 622.96714 175.21773 C 622.96714 183.47004 625.76239 190.25829 631.35268 195.58238 C 636.94296 200.90645 643.75755 203.56897 651.79691 203.56897 C 656.16265 203.56897 659.96971 203.14286 663.2174 202.29101 C 666.46509 201.4924 669.33988 200.48059 671.8422 199.25605 C 673.97182 198.29773 676.15504 197.01992 678.39115 195.4227 C 680.68051 193.77223 682.49029 192.49443 683.82131 191.58934 L 683.82131 201.09315 L 698.7558 201.09315 L 698.7558 140.55835 C 698.7558 134.80834 697.87725 129.99 696.1203 126.10341 C 694.36335 122.21684 691.80775 119.04868 688.45358 116.5996 C 685.04618 114.09728 680.99998 112.3407 676.31479 111.32912 C 671.68285 110.26431 666.22559 109.7318 659.94318 109.7318 z M 521.1439 154.29446 L 521.1439 179.13118 C 517.41704 182.00619 513.37085 184.48172 509.00511 186.55812 C 504.63936 188.58127 499.82102 189.59308 494.55017 189.59308 C 488.21452 189.59308 483.50257 188.31528 480.4146 185.75972 C 477.32665 183.15092 475.78285 179.29066 475.78285 174.17955 C 475.78285 169.65408 477.11386 166.11353 479.77588 163.55798 C 482.43793 160.94918 485.92527 159.03248 490.23778 157.80794 C 493.85814 156.79636 498.75605 156.02472 504.93197 155.49232 C 511.16114 154.95991 516.5652 154.56066 521.1439 154.29446 z M 683.82131 154.29446 L 683.82131 179.13118 C 680.09445 182.00619 676.04825 184.48172 671.68252 186.55812 C 667.31677 188.58127 662.49843 189.59308 657.22758 189.59308 C 650.89193 189.59308 646.17998 188.31528 643.09201 185.75972 C 640.00406 183.15092 638.46025 179.29066 638.46025 174.17955 C 638.46025 169.65408 639.79125 166.11353 642.45329 163.55798 C 645.11534 160.94918 648.60268 159.03248 652.91519 157.80794 C 656.53555 156.79636 661.43396 156.02472 667.6099 155.49232 C 673.83907 154.95991 679.2426 154.56066 683.82131 154.29446 z " />
        <path
           style="font-size:163.556px;-inkscape-font-specification:sans-serif;fill:#62d4d7;stroke:#000000;stroke-width:0"
           d="m 815.27327,167.15195 q 0,6.94794 -3.27431,13.73615 -3.19445,6.78821 -9.02433,11.50003 -6.38891,5.11113 -14.93407,7.98614 -8.4653,2.875 -20.4445,2.875 -12.85767,0 -23.15978,-2.39584 -10.22225,-2.39584 -20.84381,-7.10765 v -19.80561 h 1.11806 q 9.02433,7.50696 20.84381,11.57989 11.81947,4.07293 22.20144,4.07293 14.69449,0 22.84034,-5.51044 8.22572,-5.51043 8.22572,-14.69448 0,-7.90627 -3.9132,-11.65975 -3.83335,-3.75349 -11.73962,-5.82988 -5.9896,-1.59723 -13.0174,-2.63542 -6.94793,-1.0382 -14.77434,-2.63543 -15.81254,-3.35417 -23.47923,-11.42017 -7.58683,-8.14585 -7.58683,-21.16325 0,-14.934068 12.61809,-24.437566 12.61809,-9.58336 32.02439,-9.58336 12.53823,0 23.00007,2.39584 10.46183,2.39584 18.52783,5.909738 v 18.687548 h -1.11806 q -6.78822,-5.75001 -17.88894,-9.503495 -11.02086,-3.833344 -22.60076,-3.833344 -12.69795,0 -20.4445,5.270848 -7.66668,5.270851 -7.66668,13.576421 0,7.42711 3.83334,11.65976 3.83334,4.23265 13.49656,6.46877 5.11113,1.11805 14.53477,2.71528 9.42363,1.59723 15.97226,3.27432 13.25698,3.51389 19.96533,10.62155 6.70835,7.10766 6.70835,19.88547 z m 102.70169,-11.73961 q 0,10.86114 -3.11459,19.88547 -3.11459,8.94447 -8.78475,15.17365 -5.27084,5.90974 -12.45836,9.18405 -7.10766,3.19446 -15.09379,3.19446 -6.94794,0 -12.61809,-1.51737 -5.5903,-1.51736 -11.42017,-4.71182 v 37.3751 H 839.47128 V 111.88791 h 15.01393 v 9.34378 q 5.98959,-5.03126 13.4167,-8.38544 7.50696,-3.43404 15.97226,-3.43404 16.13199,0 25.07646,12.21879 9.02433,12.13892 9.02433,33.78134 z m -15.4931,0.3993 q 0,-16.13198 -5.51043,-24.11812 -5.51043,-7.98613 -16.9306,-7.98613 -6.46877,0 -13.0174,2.79515 -6.54863,2.79514 -12.53822,7.34724 V 184.402 q 6.3889,2.87501 10.941,3.91321 4.63195,1.03819 10.46183,1.03819 12.53823,0 19.56603,-8.4653 7.02779,-8.4653 7.02779,-25.07646 z m 94.55578,-27.55215 h -0.79862 q -3.35417,-0.79862 -6.54863,-1.11806 -3.11459,-0.39931 -7.4271,-0.39931 -6.94793,0 -13.4167,3.11459 -6.46877,3.03473 -12.45837,7.90627 v 63.33004 h -15.01393 v -89.20511 h 15.01393 v 13.17712 q 8.94447,-7.18752 15.73268,-10.14239 6.86808,-3.03473 13.97573,-3.03473 3.91321,0 5.67016,0.23959 1.75695,0.15972 5.27085,0.71875 z m 80.58016,72.83353 h -14.9341 v -9.5035 q -1.9965,1.35764 -5.4306,3.83334 -3.3542,2.39584 -6.5486,3.83335 -3.7535,1.83681 -8.625,3.03473 -4.8716,1.27778 -11.4202,1.27778 -12.0591,0 -20.4445,-7.98613 -8.3854,-7.98614 -8.3854,-20.36464 0,-10.14239 4.3125,-16.37157 4.3923,-6.30905 12.4583,-9.90281 8.1459,-3.59376 19.5661,-4.87154 11.4201,-1.27778 24.5174,-1.91667 v -2.31598 q 0,-5.11113 -1.8368,-8.4653 -1.757,-3.35418 -5.1112,-5.27085 -3.1944,-1.83681 -7.6666,-2.4757 -4.4723,-0.63889 -9.3438,-0.63889 -5.9098,0 -13.1771,1.59723 -7.2674,1.51736 -15.014,4.47223 h -0.7986 v -15.25351 q 4.3924,-1.19792 12.698,-2.63543 8.3056,-1.4375 16.3715,-1.4375 9.4237,0 16.3716,1.59722 7.0278,1.51737 12.1389,5.27085 5.0313,3.67362 7.6667,9.5035 2.6355,5.82988 2.6355,14.4549 z m -14.9341,-21.96187 v -24.83687 q -6.8681,0.39931 -16.2119,1.19792 -9.2639,0.79861 -14.6945,2.31598 -6.4687,1.83681 -10.4618,5.75001 -3.9931,3.83335 -3.9931,10.62156 0,7.66669 4.632,11.57989 4.632,3.83335 14.1355,3.83335 7.9062,0 14.4549,-3.03473 6.5486,-3.1146 12.1389,-7.42711 z m 119.7121,-67.24324 -52.0696,122.10797 h -16.0522 l 16.6112,-37.21537 -35.5383,-84.8926 h 16.2917 l 27.3925,66.12518 27.632,-66.12518 z"
           id="path4" />
      </g>
    </g>
  </g>
  <g
     inkscape:groupmode="layer"
     id="layer2"
     inkscape:label="cloud">
    <g
       aria-label="1"
       id="text1992-9"
       style="font-size:24.6944px;-inkscape-font-specification:sans-serif;fill:#388e3c;fill-opacity:0.692521;stroke:#000000;stroke-width:0;stop-color:#000000"
       transform="translate(-74.803223,0.64221773)" />
    <g
       aria-label="1"
       id="text2247-9"
       style="font-size:24.6944px;-inkscape-font-specification:sans-serif;vector-effect:none;fill:#388e3c;fill-opacity:0.692521;stroke:#000000;stroke-width:0;stop-color:#000000"
       transform="translate(-25.445361,14.565485)" />
    <path
       id="use3128"
       style="opacity:0.445298;vector-effect:none;fill:#57cadc;fill-opacity:1;stroke:#000000;stroke-width:0;stop-color:#000000"
       d="m 78.905503,14.846048 c -6.21424,0.11629 -11.86645,3.6016 -14.73018,9.08306 l 6.72643,5.53408 c 1.45157,-1.13818 1.72843,-4.75701 7.98897,-4.98087 v 11.04295 h -16.6894 c 0.5003,5.76952 5.00725,8.31416 7.79186,10.47261 h 18.14753 c 2.78431,-1.71212 6.45012,-6.48902 7.249724,-10.47261 h -7.044464 v -17.69519 c -3.03887,-1.78388 -6.15874,-2.90171 -8.5397,-2.98403 z"
       sodipodi:nodetypes="ccccccccccccc" />
    <path
       id="use3128-8-8"
       style="font-variation-settings:normal;opacity:0.445298;vector-effect:none;fill:#a7e3ed;fill-opacity:1;stroke:#000000;stroke-width:0;stroke-linecap:butt;stroke-linejoin:miter;stroke-miterlimit:4;stroke-dasharray:none;stroke-dashoffset:0;stroke-opacity:1;-inkscape-stroke:none;stop-color:#000000;stop-opacity:1"
       d="m 122.86325,14.832197 c -6.21425,0.11629 -11.8665,3.6016 -14.73025,9.08306 l 6.72647,5.53408 c 1.4516,-1.13818 1.72844,-4.75701 7.98899,-4.98088 v 11.042961 h -16.68945 c 0.50031,5.76952 5.00724,8.31416 7.79188,10.47261 h 18.14756 c 2.78432,-1.71212 6.45011,-6.48903 7.24973,-10.47261 h -7.04445 v -17.69519 c -3.03889,-1.78388 -6.15875,-2.90172 -8.5397,-2.98403 z"
       sodipodi:nodetypes="ccccccccccccc" />
    <path
       id="use3128-0"
       style="font-variation-settings:normal;opacity:0.445298;vector-effect:none;fill:#1e7f8f;fill-opacity:1;stroke:#000000;stroke-width:0;stroke-linecap:butt;stroke-linejoin:miter;stroke-miterlimit:4;stroke-dasharray:none;stroke-dashoffset:0;stroke-opacity:1;-inkscape-stroke:none;stop-color:#000000;stop-opacity:1"
       d="m 35.432401,150.66164 c -6.21423,0.1163 -11.86645,3.60162 -14.73018,9.08307 l 6.72642,5.53408 c 1.45158,-1.13818 1.72843,-4.75701 7.98898,-4.98088 v 11.04295 h -16.6894 c 0.5003,5.76954 5.00724,8.31417 7.79186,10.47262 h 18.14753 c 2.78431,-1.71211 6.45011,-6.48902 7.24972,-10.47262 h -7.04445 v -17.69518 c -3.03889,-1.78387 -6.15874,-2.90172 -8.5397,-2.98404 z"
       sodipodi:nodetypes="ccccccccccccc" />
    <path
       id="use3128-7"
       style="font-variation-settings:normal;opacity:0.445298;vector-effect:none;fill:#a7e3ed;fill-opacity:1;stroke:#000000;stroke-width:0;stroke-linecap:butt;stroke-linejoin:miter;stroke-miterlimit:4;stroke-dasharray:none;stroke-dashoffset:0;stroke-opacity:1;-inkscape-stroke:none;stop-color:#000000"
       d="m 34.710861,60.477638 c -6.21424,0.11629 -11.86645,3.60163 -14.7302,9.08311 l 6.72645,5.53412 c 1.45157,-1.13818 1.72842,-4.75704 7.98896,-4.9809 v 11.04299 h -16.68939 c 0.50029,5.76952 5.00723,8.31415 7.79185,10.4726 h 18.14754 c 2.7843,-1.71211 6.45011,-6.48903 7.24972,-10.4726 h -7.04445 v -17.69527 c -3.03889,-1.78389 -6.15875,-2.90174 -8.5397,-2.98405 z"
       sodipodi:nodetypes="ccccccccccccc" />
    <path
       id="use3979-4"
       style="font-variation-settings:normal;opacity:0.445298;vector-effect:none;fill:#29b0c6;fill-opacity:1;stroke:#000000;stroke-width:0;stroke-linecap:butt;stroke-linejoin:miter;stroke-miterlimit:4;stroke-dasharray:none;stroke-dashoffset:0;stroke-opacity:1;-inkscape-stroke:none;stop-color:#000000;stop-opacity:1"
       d="m 165.81411,13.830658 c -9.36493,-2.6e-4 -16.95689,7.54341 -16.95709,16.84921 -2.5e-4,9.3061 7.59184,16.85025 16.95709,16.85 9.36491,-2e-4 16.9565,-7.54422 16.95624,-16.85 -1.9e-4,-9.30549 -7.59165,-16.84902 -16.95624,-16.84921 z m 2.03967,12.37376 c 3.15264,-2.3e-4 5.33625,2.37351 5.16594,5.67603 -0.1703,3.30251 -1.67192,5.94559 -5.84805,5.94537 -4.17612,-2.2e-4 -5.84745,-3.67161 -5.6767,-6.9738 0.17075,-3.30219 3.20616,-4.64738 6.35881,-4.6476 z"
       sodipodi:nodetypes="ssscszzzzz" />
    <path
       id="use3128-7-2-2"
       style="font-variation-settings:normal;opacity:0.445298;vector-effect:none;fill:#38c0d6;fill-opacity:1;stroke:#000000;stroke-width:0;stroke-linecap:butt;stroke-linejoin:miter;stroke-miterlimit:4;stroke-dasharray:none;stroke-dashoffset:0;stroke-opacity:1;-inkscape-stroke:none;stop-color:#000000;stop-opacity:1"
       d="m 122.06517,59.923098 c -6.21424,0.11629 -11.86645,3.60162 -14.7302,9.08311 l 6.72644,5.53411 c 1.45157,-1.13819 1.72842,-4.75703 7.98897,-4.98088 v 11.04299 h -16.6894 c 0.50029,5.76952 5.00723,8.31414 7.79186,10.47259 h 18.14754 c 2.7843,-1.71211 6.45011,-6.48902 7.2497,-10.47259 h -7.04444 v -17.69528 c -3.03889,-1.78389 -6.15875,-2.90173 -8.5397,-2.98405 z"
       sodipodi:nodetypes="ccccccccccccc" />
    <path
       id="use3979-6-2"
       style="font-variation-settings:normal;opacity:0.445298;vector-effect:none;fill:#14545e;fill-opacity:1;stroke:#000000;stroke-width:0;stroke-linecap:butt;stroke-linejoin:miter;stroke-miterlimit:4;stroke-dasharray:none;stroke-dashoffset:0;stroke-opacity:1;-inkscape-stroke:none;stop-color:#000000;stop-opacity:1"
       d="m 78.275136,59.060728 c -9.36491,-2.7e-4 -16.95689,7.54344 -16.95708,16.84932 -2.5e-4,9.30609 7.59185,16.85026 16.95708,16.85 9.36493,-2.1e-4 16.95652,-7.54421 16.95626,-16.85 -1.9e-4,-9.30556 -7.59165,-16.84912 -16.95626,-16.84932 z m 2.0397,12.37383 c 3.15263,-2.2e-4 5.33624,2.37353 5.16593,5.67607 -0.1703,3.3025 -1.67192,5.9456 -5.84805,5.94538 -4.17612,-2.2e-4 -5.84744,-3.67162 -5.67669,-6.97382 0.17075,-3.30219 3.20615,-4.6474 6.35881,-4.64763 z"
       sodipodi:nodetypes="ssscszzzzz" />
    <path
       id="use3979-0"
       style="opacity:0.445298;vector-effect:none;fill:#1c7685;fill-opacity:1;stroke:#000000;stroke-width:0;stop-color:#000000"
       d="m 35.009611,13.534408 c -9.36492,-2.7e-4 -16.95689,7.5434 -16.95708,16.8492 -2.6e-4,9.3061 7.59183,16.85026 16.95708,16.85001 9.36492,-2.1e-4 16.9565,-7.54423 16.95625,-16.85001 -2e-4,-9.30548 -7.59165,-16.84901 -16.95625,-16.8492 z m 2.03967,12.37375 c 3.15265,-2.3e-4 5.33625,2.37352 5.16594,5.67603 -0.1703,3.30251 -1.67191,5.9456 -5.84804,5.94538 -4.17612,-2.2e-4 -5.84745,-3.67161 -5.6767,-6.97381 0.17074,-3.30218 3.20616,-4.64737 6.3588,-4.6476 z"
       sodipodi:nodetypes="ssscszzzzz" />
    <path
       id="use3979-0-7"
       style="font-variation-settings:normal;opacity:0.445298;vector-effect:none;fill:#a0e1eb;fill-opacity:1;stroke:#000000;stroke-width:0;stroke-linecap:butt;stroke-linejoin:miter;stroke-miterlimit:4;stroke-dasharray:none;stroke-dashoffset:0;stroke-opacity:1;-inkscape-stroke:none;stop-color:#000000;stop-opacity:1"
       d="m 78.397983,104.28681 c -9.36491,-2.6e-4 -16.95688,7.5434 -16.95707,16.84922 -2.6e-4,9.30609 7.59184,16.85025 16.95707,16.84999 9.36493,-1.9e-4 16.956524,-7.54422 16.956264,-16.84999 -1.9e-4,-9.30549 -7.591654,-16.84902 -16.956264,-16.84922 z m 2.03969,12.37377 c 3.15264,-2.3e-4 5.33625,2.37351 5.16594,5.67602 -0.1703,3.30252 -1.67192,5.9456 -5.84805,5.94538 -4.17612,-2.2e-4 -5.84745,-3.67162 -5.6767,-6.9738 0.17075,-3.30219 3.20616,-4.64738 6.35881,-4.6476 z"
       sodipodi:nodetypes="ssscszzzzz" />
    <path
       id="use3979-0-0"
       style="font-variation-settings:normal;opacity:0.445298;vector-effect:none;fill:#26a2b6;fill-opacity:1;stroke:#000000;stroke-width:0;stroke-linecap:butt;stroke-linejoin:miter;stroke-miterlimit:4;stroke-dasharray:none;stroke-dashoffset:0;stroke-opacity:1;-inkscape-stroke:none;stop-color:#000000;stop-opacity:1"
       d="m 34.703491,104.60672 c -9.36492,-2.7e-4 -16.95688,7.5434 -16.95708,16.84921 -2.6e-4,9.3061 7.59184,16.85024 16.95708,16.84999 9.36491,-1.9e-4 16.9565,-7.54422 16.95625,-16.84999 -1.9e-4,-9.30549 -7.59165,-16.84902 -16.95625,-16.84921 z m 2.03968,12.37376 c 3.15263,-2.3e-4 5.33624,2.37351 5.16594,5.67602 -0.1703,3.30251 -1.67193,5.94561 -5.84806,5.94538 -4.17612,-2.2e-4 -5.84743,-3.67161 -5.67669,-6.9738 0.17075,-3.30218 3.20617,-4.64737 6.35881,-4.6476 z"
       sodipodi:nodetypes="ssscszzzzz" />
  </g>
</svg>
